<?xml version="1.0" encoding="utf-8"?>
<!-- Generator: Adobe Illustrator 27.5.0, SVG Export Plug-In . SVG Version: 6.00 Build 0)  -->
<svg version="1.1" id="Layer_1" xmlns="http://www.w3.org/2000/svg" xmlns:xlink="http://www.w3.org/1999/xlink" x="0px" y="0px"
	 viewBox="0 0 1296 1296" style="enable-background:new 0 0 1296 1296;" xml:space="preserve">
<style type="text/css">
	.st0{fill:#0284C7;}
	.st1{fill:#2A454E;}
	.st2{display:none;fill:#0284C7;}
</style>
<g>
	<path class="st0" d="M807.26,794.93L873.11,909c10.12,17.53-2.53,39.45-22.78,39.45H730.06c-9.4,0-18.08-5.01-22.78-13.15
		l-73.63-127.55l-82.92-143.6c-4.7-8.14-4.7-18.17,0-26.3l82.92-143.62l77.08-133.52c4.7-8.14,13.38-13.15,22.78-13.15h120.27
		c20.25,0,32.9,21.92,22.78,39.45l-67.58,117.06l-77.24,133.77c-4.7,8.14-4.7,18.16,0,26.3L807.26,794.93z"/>
	<path class="st0" d="M1007.54,794.93L941.68,909c-10.12,17.53,2.53,39.45,22.78,39.45h120.27c9.4,0,18.08-5.01,22.78-13.15
		l73.63-127.55l82.92-143.6c4.7-8.14,4.7-18.17,0-26.3l-82.92-143.62l-77.08-133.52c-4.7-8.14-13.38-13.15-22.78-13.15H961.01
		c-20.25,0-32.9,21.92-22.78,39.45l67.58,117.06l77.24,133.77c4.7,8.14,4.7,18.16,0,26.3L1007.54,794.93z"/>
	<path class="st1" d="M1080.72,961.25H535.48c-0.8,0-1.54-0.42-1.93-1.12L353.97,649.12c-0.39-0.69-0.39-1.54,0-2.23l179.57-311.01
		c0.4-0.69,1.13-1.12,1.93-1.12h549.12l-0.15-0.26L990.9,172.44c-0.41-0.69-1.14-1.12-1.95-1.12H441.11c-0.8,0-1.54,0.42-1.95,1.12
		L232.24,530.85c-4.09,5.69-10.77,9.4-18.33,9.4c-10.79,0-19.83-7.57-22.06-17.69V212.18c0-22.57-18.29-40.86-40.86-40.86H69.27
		c-22.57,0-40.86,18.29-40.86,40.86v871.65c0,22.57,18.29,40.86,40.86,40.86h81.72c22.57,0,40.86-18.29,40.86-40.86V795.76
		c-0.03-0.3-0.03-0.6-0.03-0.91c0-0.3,0-0.61,0.03-0.91v-2.4h0.01v-12.72c0.41-12.13,10.36-21.86,22.61-21.86
		c7.69,0,14.5,3.85,18.59,9.74l1.89,3.28l8.43,14.63v-0.18l9.44,16.36l186.34,322.78c0.41,0.69,1.14,1.12,1.95,1.12h547.84
		c0.8,0,1.54-0.42,1.95-1.12l91.75-158.95c0.2-0.37,0.31-0.75,0.31-1.12C1082.97,962.32,1082.01,961.25,1080.72,961.25z
		 M240.59,779.59c0.86,1.23,1.62,2.53,2.25,3.9L240.59,779.59z"/>
</g>
<polygon class="st2" points="694.67,31.55 550.07,282.02 839.28,282.02 "/>
</svg>
